<?xml version="1.0" encoding="UTF-8" standalone="no" ?>
<!-- Created with Bars4J -->

<svg xmlns="http://www.w3.org/2000/svg" version="1.2" width="215" height="78"  preserveAspectRatio="x215Y78 meet">
	 <style>
	         text {
	             font-family: 'Courier New', monospace;
				 font-size: 14px;
	         }
	     </style>
<rect x="0" y="0" width="215" height="79" fill="white" />
<rect x="10"  y="2" width="1" height="64" fill="black" />
<rect x="12"  y="2" width="3" height="64" fill="black" />
<rect x="18"  y="2" width="1" height="64" fill="black" />
<rect x="22"  y="2" width="1" height="64" fill="black" />
<rect x="24"  y="2" width="3" height="64" fill="black" />
<rect x="28"  y="2" width="1" height="64" fill="black" />
<rect x="32"  y="2" width="1" height="64" fill="black" />
<rect x="34"  y="2" width="1" height="64" fill="black" />
<rect x="36"  y="2" width="1" height="64" fill="black" />
<rect x="40"  y="2" width="1" height="64" fill="black" />
<rect x="42"  y="2" width="3" height="64" fill="black" />
<rect x="46"  y="2" width="1" height="64" fill="black" />
<rect x="48"  y="2" width="1" height="64" fill="black" />
<rect x="52"  y="2" width="3" height="64" fill="black" />
<rect x="56"  y="2" width="1" height="64" fill="black" />
<rect x="58"  y="2" width="1" height="64" fill="black" />
<rect x="60"  y="2" width="1" height="64" fill="black" />
<rect x="64"  y="2" width="3" height="64" fill="black" />
<rect x="68"  y="2" width="1" height="64" fill="black" />
<rect x="70"  y="2" width="1" height="64" fill="black" />
<rect x="72"  y="2" width="3" height="64" fill="black" />
<rect x="76"  y="2" width="1" height="64" fill="black" />
<rect x="78"  y="2" width="1" height="64" fill="black" />
<rect x="82"  y="2" width="1" height="64" fill="black" />
<rect x="84"  y="2" width="1" height="64" fill="black" />
<rect x="86"  y="2" width="1" height="64" fill="black" />
<rect x="88"  y="2" width="3" height="64" fill="black" />
<rect x="94"  y="2" width="1" height="64" fill="black" />
<rect x="96"  y="2" width="3" height="64" fill="black" />
<rect x="100"  y="2" width="1" height="64" fill="black" />
<rect x="102"  y="2" width="1" height="64" fill="black" />
<rect x="106"  y="2" width="1" height="64" fill="black" />
<rect x="108"  y="2" width="1" height="64" fill="black" />
<rect x="110"  y="2" width="1" height="64" fill="black" />
<rect x="112"  y="2" width="1" height="64" fill="black" />
<rect x="116"  y="2" width="3" height="64" fill="black" />
<rect x="120"  y="2" width="1" height="64" fill="black" />
<rect x="122"  y="2" width="1" height="64" fill="black" />
<rect x="124"  y="2" width="1" height="64" fill="black" />
<rect x="128"  y="2" width="3" height="64" fill="black" />
<rect x="132"  y="2" width="1" height="64" fill="black" />
<rect x="134"  y="2" width="3" height="64" fill="black" />
<rect x="138"  y="2" width="1" height="64" fill="black" />
<rect x="142"  y="2" width="1" height="64" fill="black" />
<rect x="144"  y="2" width="1" height="64" fill="black" />
<rect x="146"  y="2" width="1" height="64" fill="black" />
<rect x="148"  y="2" width="1" height="64" fill="black" />
<rect x="152"  y="2" width="3" height="64" fill="black" />
<rect x="156"  y="2" width="1" height="64" fill="black" />
<rect x="158"  y="2" width="1" height="64" fill="black" />
<rect x="162"  y="2" width="3" height="64" fill="black" />
<rect x="166"  y="2" width="1" height="64" fill="black" />
<rect x="168"  y="2" width="1" height="64" fill="black" />
<rect x="172"  y="2" width="3" height="64" fill="black" />
<rect x="176"  y="2" width="1" height="64" fill="black" />
<rect x="178"  y="2" width="1" height="64" fill="black" />
<rect x="180"  y="2" width="3" height="64" fill="black" />
<rect x="184"  y="2" width="1" height="64" fill="black" />
<rect x="186"  y="2" width="1" height="64" fill="black" />
<rect x="190"  y="2" width="1" height="64" fill="black" />
<rect x="192"  y="2" width="1" height="64" fill="black" />
<rect x="196"  y="2" width="1" height="64" fill="black" />
<rect x="200"  y="2" width="1" height="64" fill="black" />
<rect x="202"  y="2" width="3" height="64" fill="black" />
<rect x="0"  y="64" width="215" height="14" fill="white" />
<text x="107" y="76" class="small" text-anchor="middle">97885150040-85</text>
Sorry, your browser does not support inline SVG.
</svg>