<?xml version="1.0" encoding="UTF-8" standalone="no" ?>
<!-- Created with Bars4J -->
<svg xmlns="http://www.w3.org/2000/svg" version="1.2" width="215" height="78" preserveAspectRatio="x215Y78 meet"><style>text{font-family: 'Courier New', monospace;font-size: 14px;}</style><path fill="#fff" d="M0 0h215v79H0z"/><path d="m10 2h1v64h-1zm2 0h3v64h-3zm6 0h1v64h-1zm4 0h1v64h-1zm2 0h3v64h-3zm4 0h1v64h-1zm4 0h1v64h-1zm2 0h1v64h-1zm2 0h1v64h-1zm4 0h1v64h-1zm2 0h3v64h-3zm4 0h1v64h-1zm2 0h1v64h-1zm4 0h3v64h-3zm4 0h1v64h-1zm2 0h1v64h-1zm2 0h1v64h-1zm4 0h3v64h-3zm4 0h1v64h-1zm2 0h1v64h-1zm2 0h3v64h-3zm4 0h1v64h-1zm2 0h1v64h-1zm4 0h1v64h-1zm2 0h1v64h-1zm2 0h1v64h-1zm2 0h3v64h-3zm6 0h1v64h-1zm2 0h3v64h-3zm4 0h1v64h-1zm2 0h1v64h-1zm4 0h1v64h-1zm2 0h1v64h-1zm2 0h1v64h-1zm2 0h1v64h-1zm4 0h3v64h-3zm4 0h1v64h-1zm2 0h1v64h-1zm2 0h1v64h-1zm4 0h3v64h-3zm4 0h1v64h-1zm2 0h3v64h-3zm4 0h1v64h-1zm4 0h1v64h-1zm2 0h1v64h-1zm2 0h1v64h-1zm2 0h1v64h-1zm4 0h3v64h-3zm4 0h1v64h-1zm2 0h1v64h-1zm4 0h3v64h-3zm4 0h1v64h-1zm2 0h1v64h-1zm4 0h3v64h-3zm4 0h1v64h-1zm2 0h1v64h-1zm2 0h3v64h-3zm4 0h1v64h-1zm2 0h1v64h-1zm4 0h1v64h-1zm2 0h1v64h-1zm4 0h1v64h-1zm4 0h1v64h-1zm2 0h3v64h-3z"/><path fill="#fff" d="M0 64h215v14H0z"/><text x="107" y="76" class="small" text-anchor="middle">97885150040-85</text>Sorry, your browser does not support inline SVG.</svg>