<svg xmlns="http://www.w3.org/2000/svg" version="1.2" width="176px" height="80px" preserveAspectRatio="x176Y80 meet"><path fill="#fff" d="M0 0h176v68H0z"/><path d="M10 2h2v64h-2zm3 0h1v64h-1zm3 0h1v64h-1zm5 0h1v64h-1zm4 0h1v64h-1zm2 0h2v64h-2zm5 0h1v64h-1zm3 0h1v64h-1zm2 0h2v64h-2zm6 0h1v64h-1zm3 0h1v64h-1zm3 0h4v64h-4zm5 0h1v64h-1zm2 0h4v64h-4zm6 0h1v64h-1zm3 0h2v64h-2zm4 0h1v64h-1zm3 0h3v64h-3zm4 0h1v64h-1zm2 0h2v64h-2zm3 0h3v64h-3zm6 0h1v64h-1zm3 0h2v64h-2zm3 0h3v64h-3zm5 0h1v64h-1zm2 0h3v64h-3zm4 0h4v64h-4zm5 0h1v64h-1zm2 0h2v64h-2zm4 0h3v64h-3zm5 0h1v64h-1zm2 0h4v64h-4zm5 0h3v64h-3zm4 0h3v64h-3zm4 0h1v64h-1zm3 0h2v64h-2zm4 0h3v64h-3zm4 0h1v64h-1zm2 0h2v64h-2zm5 0h2v64h-2zm5 0h3v64h-3zm4 0h1v64h-1zm2 0h2v64h-2z"/><path fill="#fff" d="M0 64h176v14H0z"/><text x="88" y="76" class="small" text-anchor="middle" style="font-family:&quot;Courier New&quot;,monospace;font-size:14px">Bars4J-128</text>Sorry, your browser does not support inline SVG.</svg>
