<?xml version="1.0" encoding="UTF-8" standalone="no" ?>
<!-- Created with Bars4J -->
<svg xmlns="http://www.w3.org/2000/svg" version="1.2" width="210" height="78" preserveAspectRatio="x210Y78 meet"><style>text{font-family: 'Courier New', monospace;font-size: 14px;}</style><path fill="#fff" d="M0 0h210v68H0z"/><path d="M10 2h1v64h-1zm2 0h1v64h-1zm2 0h4v64h-4zm5 0h2v64h-2zm3 0h1v64h-1zm3 0h1v64h-1zm3 0h1v64h-1zm3 0h2v64h-2zm4 0h1v64h-1zm2 0h2v64h-2zm3 0h1v64h-1zm2 0h1v64h-1zm4 0h1v64h-1zm3 0h2v64h-2zm4 0h1v64h-1zm2 0h2v64h-2zm3 0h2v64h-2zm4 0h1v64h-1zm2 0h1v64h-1zm3 0h2v64h-2zm4 0h1v64h-1zm2 0h2v64h-2zm3 0h1v64h-1zm2 0h2v64h-2zm4 0h1v64h-1zm3 0h1v64h-1zm2 0h1v64h-1zm4 0h1v64h-1zm3 0h2v64h-2zm3 0h1v64h-1zm3 0h1v64h-1zm3 0h1v64h-1zm2 0h3v64h-3zm4 0h1v64h-1zm5 0h1v64h-1zm2 0h1v64h-1zm2 0h1v64h-1zm2 0h1v64h-1zm5 0h1v64h-1zm2 0h2v64h-2zm4 0h1v64h-1zm3 0h1v64h-1zm2 0h1v64h-1zm3 0h2v64h-2zm4 0h1v64h-1zm2 0h1v64h-1zm2 0h2v64h-2zm4 0h2v64h-2zm3 0h1v64h-1zm3 0h2v64h-2zm4 0h1v64h-1zm2 0h2v64h-2zm3 0h1v64h-1zm3 0h2v64h-2zm3 0h1v64h-1zm3 0h2v64h-2zm3 0h2v64h-2zm3 0h1v64h-1zm2 0h2v64h-2zm4 0h2v64h-2zm3 0h1v64h-1zm2 0h1v64h-1zm2 0h4v64h-4zm5 0h1v64h-1z"/><path fill="#fff" d="M0 64h210v14H0z"/><text x="105" y="76" class="small" text-anchor="middle">Bars4J-93Ext</text>Sorry, your browser does not support inline SVG.</svg>