<?xml version="1.0" encoding="UTF-8" standalone="no" ?>
<!-- Created with Bars4J -->

<svg xmlns="http://www.w3.org/2000/svg" version="1.2" width="176" height="78"  preserveAspectRatio="x176Y78 meet">
	 <style>
	         text {
	             font-family: 'Courier New', monospace;
				 font-size: 14px;
	         }
	     </style>
<rect x="0" y="0" width="176" height="68" fill="white" />
<rect x="10"  y="2" width="2" height="64" fill="black" />
<rect x="13"  y="2" width="1" height="64" fill="black" />
<rect x="16"  y="2" width="1" height="64" fill="black" />
<rect x="21"  y="2" width="1" height="64" fill="black" />
<rect x="25"  y="2" width="1" height="64" fill="black" />
<rect x="27"  y="2" width="2" height="64" fill="black" />
<rect x="32"  y="2" width="1" height="64" fill="black" />
<rect x="35"  y="2" width="1" height="64" fill="black" />
<rect x="37"  y="2" width="2" height="64" fill="black" />
<rect x="43"  y="2" width="1" height="64" fill="black" />
<rect x="46"  y="2" width="1" height="64" fill="black" />
<rect x="49"  y="2" width="4" height="64" fill="black" />
<rect x="54"  y="2" width="1" height="64" fill="black" />
<rect x="56"  y="2" width="4" height="64" fill="black" />
<rect x="62"  y="2" width="1" height="64" fill="black" />
<rect x="65"  y="2" width="2" height="64" fill="black" />
<rect x="69"  y="2" width="1" height="64" fill="black" />
<rect x="72"  y="2" width="3" height="64" fill="black" />
<rect x="76"  y="2" width="1" height="64" fill="black" />
<rect x="78"  y="2" width="2" height="64" fill="black" />
<rect x="81"  y="2" width="3" height="64" fill="black" />
<rect x="87"  y="2" width="1" height="64" fill="black" />
<rect x="90"  y="2" width="2" height="64" fill="black" />
<rect x="93"  y="2" width="3" height="64" fill="black" />
<rect x="98"  y="2" width="1" height="64" fill="black" />
<rect x="100"  y="2" width="3" height="64" fill="black" />
<rect x="104"  y="2" width="4" height="64" fill="black" />
<rect x="109"  y="2" width="1" height="64" fill="black" />
<rect x="111"  y="2" width="2" height="64" fill="black" />
<rect x="115"  y="2" width="3" height="64" fill="black" />
<rect x="120"  y="2" width="1" height="64" fill="black" />
<rect x="122"  y="2" width="4" height="64" fill="black" />
<rect x="127"  y="2" width="3" height="64" fill="black" />
<rect x="131"  y="2" width="3" height="64" fill="black" />
<rect x="135"  y="2" width="1" height="64" fill="black" />
<rect x="138"  y="2" width="2" height="64" fill="black" />
<rect x="142"  y="2" width="3" height="64" fill="black" />
<rect x="146"  y="2" width="1" height="64" fill="black" />
<rect x="148"  y="2" width="2" height="64" fill="black" />
<rect x="153"  y="2" width="2" height="64" fill="black" />
<rect x="158"  y="2" width="3" height="64" fill="black" />
<rect x="162"  y="2" width="1" height="64" fill="black" />
<rect x="164"  y="2" width="2" height="64" fill="black" />
<rect x="0"  y="64" width="176" height="14" fill="white" />
<text x="88" y="76" class="small" text-anchor="middle">Bars4J-128</text>
Sorry, your browser does not support inline SVG.
</svg>