<?xml version="1.0" encoding="UTF-8" standalone="no" ?>
<!-- Created with Bars4J -->

<svg xmlns="http://www.w3.org/2000/svg" version="1.2" width="162" height="78"  preserveAspectRatio="x162Y78 meet">
	 <style>
	         text {
	             font-family: 'Courier New', monospace;
				 font-size: 14px;
	         }
	     </style>
<rect x="0" y="0" width="162" height="79" fill="white" />
<rect x="10"  y="2" width="1" height="64" fill="black" />
<rect x="13"  y="2" width="1" height="64" fill="black" />
<rect x="15"  y="2" width="2" height="64" fill="black" />
<rect x="18"  y="2" width="2" height="64" fill="black" />
<rect x="21"  y="2" width="1" height="64" fill="black" />
<rect x="23"  y="2" width="1" height="64" fill="black" />
<rect x="25"  y="2" width="2" height="64" fill="black" />
<rect x="28"  y="2" width="1" height="64" fill="black" />
<rect x="31"  y="2" width="1" height="64" fill="black" />
<rect x="33"  y="2" width="2" height="64" fill="black" />
<rect x="36"  y="2" width="2" height="64" fill="black" />
<rect x="39"  y="2" width="1" height="64" fill="black" />
<rect x="41"  y="2" width="1" height="64" fill="black" />
<rect x="44"  y="2" width="1" height="64" fill="black" />
<rect x="46"  y="2" width="2" height="64" fill="black" />
<rect x="49"  y="2" width="2" height="64" fill="black" />
<rect x="52"  y="2" width="1" height="64" fill="black" />
<rect x="54"  y="2" width="1" height="64" fill="black" />
<rect x="56"  y="2" width="2" height="64" fill="black" />
<rect x="60"  y="2" width="1" height="64" fill="black" />
<rect x="62"  y="2" width="1" height="64" fill="black" />
<rect x="64"  y="2" width="2" height="64" fill="black" />
<rect x="67"  y="2" width="1" height="64" fill="black" />
<rect x="69"  y="2" width="2" height="64" fill="black" />
<rect x="73"  y="2" width="1" height="64" fill="black" />
<rect x="75"  y="2" width="1" height="64" fill="black" />
<rect x="77"  y="2" width="1" height="64" fill="black" />
<rect x="80"  y="2" width="2" height="64" fill="black" />
<rect x="83"  y="2" width="1" height="64" fill="black" />
<rect x="85"  y="2" width="2" height="64" fill="black" />
<rect x="88"  y="2" width="1" height="64" fill="black" />
<rect x="90"  y="2" width="1" height="64" fill="black" />
<rect x="92"  y="2" width="2" height="64" fill="black" />
<rect x="96"  y="2" width="2" height="64" fill="black" />
<rect x="99"  y="2" width="1" height="64" fill="black" />
<rect x="101"  y="2" width="1" height="64" fill="black" />
<rect x="104"  y="2" width="1" height="64" fill="black" />
<rect x="106"  y="2" width="1" height="64" fill="black" />
<rect x="108"  y="2" width="2" height="64" fill="black" />
<rect x="111"  y="2" width="2" height="64" fill="black" />
<rect x="114"  y="2" width="2" height="64" fill="black" />
<rect x="117"  y="2" width="2" height="64" fill="black" />
<rect x="121"  y="2" width="1" height="64" fill="black" />
<rect x="123"  y="2" width="1" height="64" fill="black" />
<rect x="125"  y="2" width="1" height="64" fill="black" />
<rect x="127"  y="2" width="1" height="64" fill="black" />
<rect x="129"  y="2" width="2" height="64" fill="black" />
<rect x="133"  y="2" width="1" height="64" fill="black" />
<rect x="135"  y="2" width="2" height="64" fill="black" />
<rect x="138"  y="2" width="1" height="64" fill="black" />
<rect x="140"  y="2" width="1" height="64" fill="black" />
<rect x="143"  y="2" width="1" height="64" fill="black" />
<rect x="145"  y="2" width="2" height="64" fill="black" />
<rect x="148"  y="2" width="2" height="64" fill="black" />
<rect x="151"  y="2" width="1" height="64" fill="black" />
<rect x="0"  y="64" width="162" height="14" fill="white" />
<text x="81" y="76" class="small" text-anchor="middle">BARS4J-39</text>
Sorry, your browser does not support inline SVG.
</svg>