<svg xmlns="http://www.w3.org/2000/svg" version="1.2"><path fill="#fff" d="M0 0h162v79H0z"/><path d="M10 2h1v64h-1zm3 0h1v64h-1zm2 0h2v64h-2zm3 0h2v64h-2zm3 0h1v64h-1zm2 0h1v64h-1zm2 0h2v64h-2zm3 0h1v64h-1zm3 0h1v64h-1zm2 0h2v64h-2zm3 0h2v64h-2zm3 0h1v64h-1zm2 0h1v64h-1zm3 0h1v64h-1zm2 0h2v64h-2zm3 0h2v64h-2zm3 0h1v64h-1zm2 0h1v64h-1zm2 0h2v64h-2zm4 0h1v64h-1zm2 0h1v64h-1zm2 0h2v64h-2zm3 0h1v64h-1zm2 0h2v64h-2zm4 0h1v64h-1zm2 0h1v64h-1zm2 0h1v64h-1zm3 0h2v64h-2zm3 0h1v64h-1zm2 0h2v64h-2zm3 0h1v64h-1zm2 0h1v64h-1zm2 0h2v64h-2zm4 0h2v64h-2zm3 0h1v64h-1zm2 0h1v64h-1zm3 0h1v64h-1zm2 0h1v64h-1zm2 0h2v64h-2zm3 0h2v64h-2zm3 0h2v64h-2zm3 0h2v64h-2zm4 0h1v64h-1zm2 0h1v64h-1zm2 0h1v64h-1zm2 0h1v64h-1zm2 0h2v64h-2zm4 0h1v64h-1zm2 0h2v64h-2zm3 0h1v64h-1zm2 0h1v64h-1zm3 0h1v64h-1zm2 0h2v64h-2zm3 0h2v64h-2zm3 0h1v64h-1z"/><path fill="#fff" d="M0 64h162v14H0z"/><text x="81" y="76" class="small" text-anchor="middle" style="font-family:&quot;Courier New&quot;,monospace;font-size:14px">BARS4J-39</text>Sorry, your browser does not support inline SVG.</svg>
