<?xml version="1.0" encoding="UTF-8" standalone="no" ?>
<!-- Created with Bars4J -->
<svg xmlns="http://www.w3.org/2000/svg" version="1.2" width="150" height="78" preserveAspectRatio="x150Y78 meet"><style>text{font-family: 'Courier New', monospace;font-size: 14px;}</style><path fill="#fff" d="M0 0h150v68H0z"/><path d="M10 2h1v64h-1zm2 0h2v64h-2zm4 0h1v64h-1zm2 0h2v64h-2zm3 0h1v64h-1zm2 0h1v64h-1zm2 0h1v64h-1zm2 0h1v64h-1zm3 0h2v64h-2zm3 0h2v64h-2zm3 0h1v64h-1zm3 0h1v64h-1zm2 0h2v64h-2zm3 0h1v64h-1zm3 0h1v64h-1zm2 0h2v64h-2zm3 0h2v64h-2zm3 0h1v64h-1zm2 0h2v64h-2zm3 0h1v64h-1zm2 0h2v64h-2zm3 0h2v64h-2zm3 0h2v64h-2zm3 0h1v64h-1zm2 0h1v64h-1zm2 0h1v64h-1zm2 0h2v64h-2zm3 0h1v64h-1zm2 0h1v64h-1zm2 0h2v64h-2zm3 0h1v64h-1zm2 0h2v64h-2zm3 0h2v64h-2zm3 0h1v64h-1zm2 0h1v64h-1zm2 0h2v64h-2zm3 0h1v64h-1zm2 0h2v64h-2zm3 0h2v64h-2zm3 0h2v64h-2zm3 0h1v64h-1zm2 0h2v64h-2zm3 0h1v64h-1zm2 0h1v64h-1zm2 0h2v64h-2zm3 0h2v64h-2zm4 0h1v64h-1zm2 0h1v64h-1zm2 0h1v64h-1zm2 0h2v64h-2zm4 0h1v64h-1z"/><path fill="#fff" d="M0 64h150v14H0z"/><text x="75" y="76" class="small" text-anchor="middle">978851500404103</text>Sorry, your browser does not support inline SVG.</svg>