<?xml version="1.0" encoding="UTF-8" standalone="no" ?>
<!-- Created with Bars4J -->

<svg xmlns="http://www.w3.org/2000/svg" version="1.2" width="150" height="78"  preserveAspectRatio="x150Y78 meet">
	 <style>
	         text {
	             font-family: 'Courier New', monospace;
				 font-size: 14px;
	         }
	     </style>
<rect x="0" y="0" width="150" height="68" fill="white" />
<rect x="10"  y="2" width="1" height="64" fill="black" />
<rect x="12"  y="2" width="2" height="64" fill="black" />
<rect x="16"  y="2" width="1" height="64" fill="black" />
<rect x="18"  y="2" width="2" height="64" fill="black" />
<rect x="21"  y="2" width="1" height="64" fill="black" />
<rect x="23"  y="2" width="1" height="64" fill="black" />
<rect x="25"  y="2" width="1" height="64" fill="black" />
<rect x="27"  y="2" width="1" height="64" fill="black" />
<rect x="30"  y="2" width="2" height="64" fill="black" />
<rect x="33"  y="2" width="2" height="64" fill="black" />
<rect x="36"  y="2" width="1" height="64" fill="black" />
<rect x="39"  y="2" width="1" height="64" fill="black" />
<rect x="41"  y="2" width="2" height="64" fill="black" />
<rect x="44"  y="2" width="1" height="64" fill="black" />
<rect x="47"  y="2" width="1" height="64" fill="black" />
<rect x="49"  y="2" width="2" height="64" fill="black" />
<rect x="52"  y="2" width="2" height="64" fill="black" />
<rect x="55"  y="2" width="1" height="64" fill="black" />
<rect x="57"  y="2" width="2" height="64" fill="black" />
<rect x="60"  y="2" width="1" height="64" fill="black" />
<rect x="62"  y="2" width="2" height="64" fill="black" />
<rect x="65"  y="2" width="2" height="64" fill="black" />
<rect x="68"  y="2" width="2" height="64" fill="black" />
<rect x="71"  y="2" width="1" height="64" fill="black" />
<rect x="73"  y="2" width="1" height="64" fill="black" />
<rect x="75"  y="2" width="1" height="64" fill="black" />
<rect x="77"  y="2" width="2" height="64" fill="black" />
<rect x="80"  y="2" width="1" height="64" fill="black" />
<rect x="82"  y="2" width="1" height="64" fill="black" />
<rect x="84"  y="2" width="2" height="64" fill="black" />
<rect x="87"  y="2" width="1" height="64" fill="black" />
<rect x="89"  y="2" width="2" height="64" fill="black" />
<rect x="92"  y="2" width="2" height="64" fill="black" />
<rect x="95"  y="2" width="1" height="64" fill="black" />
<rect x="97"  y="2" width="1" height="64" fill="black" />
<rect x="99"  y="2" width="2" height="64" fill="black" />
<rect x="102"  y="2" width="1" height="64" fill="black" />
<rect x="104"  y="2" width="2" height="64" fill="black" />
<rect x="107"  y="2" width="2" height="64" fill="black" />
<rect x="110"  y="2" width="2" height="64" fill="black" />
<rect x="113"  y="2" width="1" height="64" fill="black" />
<rect x="115"  y="2" width="2" height="64" fill="black" />
<rect x="118"  y="2" width="1" height="64" fill="black" />
<rect x="120"  y="2" width="1" height="64" fill="black" />
<rect x="122"  y="2" width="2" height="64" fill="black" />
<rect x="125"  y="2" width="2" height="64" fill="black" />
<rect x="129"  y="2" width="1" height="64" fill="black" />
<rect x="131"  y="2" width="1" height="64" fill="black" />
<rect x="133"  y="2" width="1" height="64" fill="black" />
<rect x="135"  y="2" width="2" height="64" fill="black" />
<rect x="139"  y="2" width="1" height="64" fill="black" />
<rect x="0"  y="64" width="150" height="14" fill="white" />
<text x="75" y="76" class="small" text-anchor="middle">978851500404103</text>
Sorry, your browser does not support inline SVG.
</svg>