<?xml version="1.0" encoding="UTF-8" standalone="no" ?>
<!-- Created with Bars4J -->

<svg xmlns="http://www.w3.org/2000/svg" version="1.2" width="266" height="78"  preserveAspectRatio="x266Y78 meet">
	 <style>
	         text {
	             font-family: 'Courier New', monospace;
				 font-size: 14px;
	         }
	     </style>
<rect x="0" y="0" width="266" height="79" fill="white" />
<rect x="10"  y="2" width="1" height="64" fill="black" />
<rect x="13"  y="2" width="1" height="64" fill="black" />
<rect x="15"  y="2" width="2" height="64" fill="black" />
<rect x="18"  y="2" width="2" height="64" fill="black" />
<rect x="21"  y="2" width="1" height="64" fill="black" />
<rect x="23"  y="2" width="1" height="64" fill="black" />
<rect x="25"  y="2" width="2" height="64" fill="black" />
<rect x="28"  y="2" width="1" height="64" fill="black" />
<rect x="31"  y="2" width="1" height="64" fill="black" />
<rect x="33"  y="2" width="2" height="64" fill="black" />
<rect x="36"  y="2" width="1" height="64" fill="black" />
<rect x="39"  y="2" width="1" height="64" fill="black" />
<rect x="41"  y="2" width="1" height="64" fill="black" />
<rect x="44"  y="2" width="1" height="64" fill="black" />
<rect x="47"  y="2" width="1" height="64" fill="black" />
<rect x="49"  y="2" width="2" height="64" fill="black" />
<rect x="52"  y="2" width="1" height="64" fill="black" />
<rect x="54"  y="2" width="1" height="64" fill="black" />
<rect x="57"  y="2" width="1" height="64" fill="black" />
<rect x="59"  y="2" width="2" height="64" fill="black" />
<rect x="62"  y="2" width="1" height="64" fill="black" />
<rect x="65"  y="2" width="1" height="64" fill="black" />
<rect x="67"  y="2" width="1" height="64" fill="black" />
<rect x="70"  y="2" width="1" height="64" fill="black" />
<rect x="73"  y="2" width="1" height="64" fill="black" />
<rect x="75"  y="2" width="2" height="64" fill="black" />
<rect x="78"  y="2" width="1" height="64" fill="black" />
<rect x="80"  y="2" width="1" height="64" fill="black" />
<rect x="82"  y="2" width="2" height="64" fill="black" />
<rect x="86"  y="2" width="1" height="64" fill="black" />
<rect x="88"  y="2" width="1" height="64" fill="black" />
<rect x="91"  y="2" width="1" height="64" fill="black" />
<rect x="93"  y="2" width="1" height="64" fill="black" />
<rect x="96"  y="2" width="1" height="64" fill="black" />
<rect x="99"  y="2" width="1" height="64" fill="black" />
<rect x="101"  y="2" width="1" height="64" fill="black" />
<rect x="103"  y="2" width="2" height="64" fill="black" />
<rect x="106"  y="2" width="1" height="64" fill="black" />
<rect x="108"  y="2" width="2" height="64" fill="black" />
<rect x="112"  y="2" width="1" height="64" fill="black" />
<rect x="114"  y="2" width="1" height="64" fill="black" />
<rect x="116"  y="2" width="1" height="64" fill="black" />
<rect x="119"  y="2" width="2" height="64" fill="black" />
<rect x="122"  y="2" width="1" height="64" fill="black" />
<rect x="124"  y="2" width="2" height="64" fill="black" />
<rect x="127"  y="2" width="1" height="64" fill="black" />
<rect x="129"  y="2" width="1" height="64" fill="black" />
<rect x="131"  y="2" width="2" height="64" fill="black" />
<rect x="135"  y="2" width="2" height="64" fill="black" />
<rect x="138"  y="2" width="1" height="64" fill="black" />
<rect x="140"  y="2" width="1" height="64" fill="black" />
<rect x="143"  y="2" width="1" height="64" fill="black" />
<rect x="145"  y="2" width="1" height="64" fill="black" />
<rect x="147"  y="2" width="2" height="64" fill="black" />
<rect x="150"  y="2" width="2" height="64" fill="black" />
<rect x="153"  y="2" width="2" height="64" fill="black" />
<rect x="156"  y="2" width="2" height="64" fill="black" />
<rect x="160"  y="2" width="1" height="64" fill="black" />
<rect x="162"  y="2" width="1" height="64" fill="black" />
<rect x="164"  y="2" width="1" height="64" fill="black" />
<rect x="166"  y="2" width="1" height="64" fill="black" />
<rect x="168"  y="2" width="2" height="64" fill="black" />
<rect x="172"  y="2" width="1" height="64" fill="black" />
<rect x="174"  y="2" width="2" height="64" fill="black" />
<rect x="177"  y="2" width="1" height="64" fill="black" />
<rect x="179"  y="2" width="2" height="64" fill="black" />
<rect x="182"  y="2" width="1" height="64" fill="black" />
<rect x="184"  y="2" width="2" height="64" fill="black" />
<rect x="188"  y="2" width="1" height="64" fill="black" />
<rect x="190"  y="2" width="1" height="64" fill="black" />
<rect x="192"  y="2" width="1" height="64" fill="black" />
<rect x="195"  y="2" width="1" height="64" fill="black" />
<rect x="197"  y="2" width="1" height="64" fill="black" />
<rect x="200"  y="2" width="1" height="64" fill="black" />
<rect x="203"  y="2" width="1" height="64" fill="black" />
<rect x="205"  y="2" width="1" height="64" fill="black" />
<rect x="208"  y="2" width="1" height="64" fill="black" />
<rect x="210"  y="2" width="2" height="64" fill="black" />
<rect x="213"  y="2" width="1" height="64" fill="black" />
<rect x="215"  y="2" width="2" height="64" fill="black" />
<rect x="218"  y="2" width="1" height="64" fill="black" />
<rect x="221"  y="2" width="1" height="64" fill="black" />
<rect x="223"  y="2" width="1" height="64" fill="black" />
<rect x="226"  y="2" width="1" height="64" fill="black" />
<rect x="229"  y="2" width="1" height="64" fill="black" />
<rect x="231"  y="2" width="1" height="64" fill="black" />
<rect x="233"  y="2" width="1" height="64" fill="black" />
<rect x="235"  y="2" width="2" height="64" fill="black" />
<rect x="238"  y="2" width="2" height="64" fill="black" />
<rect x="242"  y="2" width="1" height="64" fill="black" />
<rect x="244"  y="2" width="1" height="64" fill="black" />
<rect x="247"  y="2" width="1" height="64" fill="black" />
<rect x="249"  y="2" width="2" height="64" fill="black" />
<rect x="252"  y="2" width="2" height="64" fill="black" />
<rect x="255"  y="2" width="1" height="64" fill="black" />
<rect x="0"  y="64" width="266" height="14" fill="white" />
<text x="133" y="76" class="small" text-anchor="middle">Bars4J-39Ext</text>
Sorry, your browser does not support inline SVG.
</svg>