<?xml version="1.0" encoding="UTF-8" standalone="no" ?>
<!-- Created with Bars4J -->
<svg xmlns="http://www.w3.org/2000/svg" version="1.2" width="85" height="78" preserveAspectRatio="x85Y78 meet"><style>text{font-family: 'Courier New', monospace;font-size: 14px;}</style><path fill="#fff" d="M0 0h85v79H0z"/><path d="m10 2h1v64h-1zm2 0h1v64h-1zm2 0h2v64h-2zm3 0h1v64h-1zm2 0h2v64h-2zm3 0h1v64h-1zm3 0h1v64h-1zm2 0h2v64h-2zm3 0h2v64h-2zm4 0h1v64h-1zm2 0h1v64h-1zm2 0h1v64h-1zm2 0h2v64h-2zm3 0h2v64h-2zm3 0h2v64h-2zm3 0h2v64h-2zm3 0h1v64h-1zm2 0h1v64h-1zm3 0h2v64h-2zm3 0h1v64h-1zm2 0h2v64h-2zm3 0h2v64h-2zm3 0h1v64h-1zm2 0h2v64h-2zm3 0h1v64h-1z"/><path fill="#fff" d="M0 64h85v14H0z"/><text x="42" y="76" class="small" text-anchor="middle">1234565</text>Sorry, your browser does not support inline SVG.</svg>