<?xml version="1.0" encoding="UTF-8" standalone="no" ?>
<!-- Created with Bars4J -->

<svg xmlns="http://www.w3.org/2000/svg" version="1.2" width="85" height="78"  preserveAspectRatio="x85Y78 meet">
	 <style>
	         text {
	             font-family: 'Courier New', monospace;
				 font-size: 14px;
	         }
	     </style>
<rect x="0" y="0" width="85" height="79" fill="white" />
<rect x="10"  y="2" width="1" height="64" fill="black" />
<rect x="12"  y="2" width="1" height="64" fill="black" />
<rect x="14"  y="2" width="2" height="64" fill="black" />
<rect x="17"  y="2" width="1" height="64" fill="black" />
<rect x="19"  y="2" width="2" height="64" fill="black" />
<rect x="22"  y="2" width="1" height="64" fill="black" />
<rect x="25"  y="2" width="1" height="64" fill="black" />
<rect x="27"  y="2" width="2" height="64" fill="black" />
<rect x="30"  y="2" width="2" height="64" fill="black" />
<rect x="34"  y="2" width="1" height="64" fill="black" />
<rect x="36"  y="2" width="1" height="64" fill="black" />
<rect x="38"  y="2" width="1" height="64" fill="black" />
<rect x="40"  y="2" width="2" height="64" fill="black" />
<rect x="43"  y="2" width="2" height="64" fill="black" />
<rect x="46"  y="2" width="2" height="64" fill="black" />
<rect x="49"  y="2" width="2" height="64" fill="black" />
<rect x="52"  y="2" width="1" height="64" fill="black" />
<rect x="54"  y="2" width="1" height="64" fill="black" />
<rect x="57"  y="2" width="2" height="64" fill="black" />
<rect x="60"  y="2" width="1" height="64" fill="black" />
<rect x="62"  y="2" width="2" height="64" fill="black" />
<rect x="65"  y="2" width="1" height="64" fill="black" />
<rect x="67"  y="2" width="2" height="64" fill="black" />
<rect x="70"  y="2" width="2" height="64" fill="black" />
<rect x="73"  y="2" width="1" height="64" fill="black" />
<rect x="0"  y="64" width="85" height="14" fill="white" />
<text x="42" y="76" class="small" text-anchor="middle">1234561</text>
Sorry, your browser does not support inline SVG.
</svg>