<?xml version="1.0" encoding="UTF-8" standalone="no" ?>
<!-- Created with Bars4J -->
<svg xmlns="http://www.w3.org/2000/svg" version="1.2" width="115" height="79" preserveAspectRatio="x115Y79 meet"><style>text{font-family: 'Courier New', monospace;font-size: 14px;}</style><path fill="#fff" d="M0 0h115v76H0z"/><path d="M10 2h1v72h-1zm2 0h1v72h-1zm2 0h2v72h-2zm3 0h3v72h-3zm5 0h1v72h-1zm2 0h3v72h-3zm5 0h2v72h-2zm4 0h1v72h-1zm2 0h1v72h-1zm3 0h3v72h-3zm6 0h2v72h-2zm3 0h1v72h-1zm2 0h1v72h-1zm3 0h3v72h-3zm4 0h1v72h-1zm2 0h1v72h-1zm2 0h1v72h-1zm5 0h1v72h-1zm2 0h2v72h-2zm4 0h2v72h-2zm3 0h1v72h-1zm3 0h3v72h-3zm4 0h1v72h-1zm3 0h3v72h-3zm4 0h3v72h-3zm5 0h1v72h-1zm2 0h1v72h-1zm4 0h1v72h-1zm3 0h1v72h-1zm2 0h1v72h-1z"/><path fill="#fff" d="M0 72h115v8H0z"/><path fill="#fff" d="M13 65h43v14H13zm46 0h43v14H59z"/><text x="0" y="75" class="small" textLength="8">7</text><text x="13" y="75" class="small" textLength="43">891000</text><text x="59" y="75" class="small" textLength="43">315507</text><text x="106" y="75" class="small" textLength="8">></text>Sorry, your browser does not support inline SVG.</svg>