<svg xmlns="http://www.w3.org/2000/svg" version="1.2" width="115" height="78" preserveAspectRatio="x163Y78 meet"><style>text{font-family:&quot;Courier New&quot;,monospace;font-size:14px}</style><path fill="#fff" d="M0 0h115v76H0z"/><path d="M10 2h1v72h-1zm2 0h1v72h-1zm2 0h3v72h-3zm4 0h2v72h-2zm5 0h1v72h-1zm2 0h2v72h-2zm3 0h4v72h-4zm5 0h1v72h-1zm2 0h2v72h-2zm5 0h1v72h-1zm2 0h3v72h-3zm4 0h2v72h-2zm3 0h4v72h-4zm5 0h1v72h-1zm2 0h1v72h-1zm2 0h1v72h-1zm2 0h1v72h-1zm2 0h1v72h-1zm5 0h1v72h-1zm4 0h1v72h-1zm3 0h3v72h-3zm4 0h1v72h-1zm3 0h1v72h-1zm2 0h3v72h-3zm5 0h3v72h-3zm5 0h1v72h-1zm2 0h1v72h-1zm2 0h1v72h-1zm5 0h1v72h-1zm2 0h1v72h-1z"/><path fill="#fff" d="M0 72h115v8H0z"/><path fill="#fff" d="M13 65h43v14H13zm46 0h43v14H59z"/><text y="75" class="small" textLength="8">0</text><text x="13" y="75" class="small" textLength="43">793573</text><text x="59" y="75" class="small" textLength="43">679406</text><text x="106" y="75" class="small" textLength="43">&gt;</text>Sorry, your browser does not support inline SVG.</svg>
