<?xml version="1.0" encoding="UTF-8" standalone="no" ?>
<!-- Created with Bars4J -->
<svg xmlns="http://www.w3.org/2000/svg" version="1.2" width="87" height="79" preserveAspectRatio="x87Y79 meet"><style>text{font-family: 'Courier New', monospace;font-size: 14px;}</style><path fill="#fff" d="M0 0h87v76H0z"/><path d="M10 2h1v72h-1zm2 0h1v72h-1zm4 0h1v72h-1zm2 0h2v72h-2zm3 0h3v72h-3zm4 0h2v72h-2zm3 0h2v72h-2zm3 0h3v72h-3zm4 0h2v72h-2zm3 0h3v72h-3zm4 0h1v72h-1zm2 0h1v72h-1zm2 0h1v72h-1zm3 0h3v72h-3zm4 0h2v72h-2zm4 0h2v72h-2zm3 0h1v72h-1zm3 0h3v72h-3zm4 0h1v72h-1zm5 0h1v72h-1zm2 0h1v72h-1zm2 0h1v72h-1z"/><path fill="#fff" d="M0 72h87v8H0z"/><path fill="#fff" d="M13 65h29v14H13zm32 0h29v14H45z"/><text x="13" y="75" class="small" textLength="29">9788</text><text x="45" y="75" class="small" textLength="29">5153</text>Sorry, your browser does not support inline SVG.</svg>