<?xml version="1.0" encoding="UTF-8" standalone="no" ?>
<!-- Created with Bars4J -->

<svg xmlns="http://www.w3.org/2000/svg" version="1.2" width="87" height="79"  preserveAspectRatio="x87Y79 meet">
	 <style>
	         text {
	             font-family: 'Courier New', monospace;
				 font-size: 14px;
	         }
	     </style>
<rect x="0" y="0" width="87" height="76" fill="white" />
<rect x="10"  y="2" width="1" height="72" fill="black" />
<rect x="12"  y="2" width="1" height="72" fill="black" />
<rect x="16"  y="2" width="1" height="72" fill="black" />
<rect x="18"  y="2" width="2" height="72" fill="black" />
<rect x="21"  y="2" width="3" height="72" fill="black" />
<rect x="25"  y="2" width="2" height="72" fill="black" />
<rect x="28"  y="2" width="2" height="72" fill="black" />
<rect x="31"  y="2" width="3" height="72" fill="black" />
<rect x="35"  y="2" width="2" height="72" fill="black" />
<rect x="38"  y="2" width="3" height="72" fill="black" />
<rect x="42"  y="2" width="1" height="72" fill="black" />
<rect x="44"  y="2" width="1" height="72" fill="black" />
<rect x="46"  y="2" width="1" height="72" fill="black" />
<rect x="49"  y="2" width="3" height="72" fill="black" />
<rect x="53"  y="2" width="2" height="72" fill="black" />
<rect x="57"  y="2" width="2" height="72" fill="black" />
<rect x="60"  y="2" width="1" height="72" fill="black" />
<rect x="63"  y="2" width="3" height="72" fill="black" />
<rect x="67"  y="2" width="1" height="72" fill="black" />
<rect x="72"  y="2" width="1" height="72" fill="black" />
<rect x="74"  y="2" width="1" height="72" fill="black" />
<rect x="76"  y="2" width="1" height="72" fill="black" />
<rect x="0" y="72" width="87" height="8" fill="white" />
<rect x="13" y="65" width="29" height="14" fill="white" />
<rect x="45" y="65" width="29" height="14" fill="white" />
<text x="13" y="75" class="small" textLength="29">9788</text>
<text x="45" y="75" class="small" textLength="29">5153</text>
Sorry, your browser does not support inline SVG.
</svg>