<?xml version="1.0" encoding="UTF-8" standalone="no" ?>
<!-- Created with Bars4J -->
<svg xmlns="http://www.w3.org/2000/svg" version="1.2" width="185" height="78" preserveAspectRatio="x185Y78 meet"><style>text{font-family: 'Courier New', monospace;font-size: 14px;}</style><path fill="#fff" d="M0 0h185v79H0z"/><path d="m10 2h1v64h-1zm2 0h1v64h-1zm2 0h1v64h-1zm2 0h2v64h-2zm3 0h1v64h-1zm2 0h2v64h-2zm3 0h1v64h-1zm2 0h1v64h-1zm2 0h1v64h-1zm2 0h1v64h-1zm2 0h2v64h-2zm3 0h2v64h-2zm3 0h2v64h-2zm3 0h1v64h-1zm2 0h1v64h-1zm2 0h2v64h-2zm3 0h1v64h-1zm2 0h2v64h-2zm3 0h1v64h-1zm2 0h1v64h-1zm2 0h2v64h-2zm3 0h1v64h-1zm2 0h2v64h-2zm3 0h1v64h-1zm2 0h2v64h-2zm3 0h1v64h-1zm2 0h1v64h-1zm2 0h2v64h-2zm3 0h1v64h-1zm2 0h1v64h-1zm2 0h1v64h-1zm2 0h2v64h-2zm3 0h2v64h-2zm3 0h1v64h-1zm2 0h2v64h-2zm3 0h1v64h-1zm2 0h1v64h-1zm2 0h1v64h-1zm2 0h1v64h-1zm2 0h2v64h-2zm3 0h2v64h-2zm3 0h1v64h-1zm2 0h1v64h-1zm2 0h1v64h-1zm2 0h2v64h-2zm3 0h2v64h-2zm3 0h1v64h-1zm2 0h1v64h-1zm2 0h1v64h-1zm2 0h2v64h-2zm3 0h1v64h-1zm2 0h2v64h-2zm3 0h1v64h-1zm2 0h1v64h-1zm2 0h2v64h-2zm3 0h2v64h-2zm3 0h1v64h-1zm2 0h1v64h-1zm2 0h1v64h-1zm2 0h2v64h-2zm3 0h1v64h-1zm2 0h2v64h-2zm3 0h2v64h-2zm3 0h1v64h-1zm2 0h1v64h-1zm2 0h1v64h-1zm2 0h2v64h-2zm3 0h2v64h-2zm3 0h1v64h-1z"/><path fill="#fff" d="M0 64h185v14H0z"/><text x="92" y="76" class="small" text-anchor="middle">978851500404</text>Sorry, your browser does not support inline SVG.</svg>