<?xml version="1.0" encoding="UTF-8" standalone="no" ?>
<!-- Created with Bars4J -->

<svg xmlns="http://www.w3.org/2000/svg" version="1.2" width="185" height="78"  preserveAspectRatio="x185Y78 meet">
	 <style>
	         text {
	             font-family: 'Courier New', monospace;
				 font-size: 14px;
	         }
	     </style>
<rect x="0" y="0" width="185" height="79" fill="white" />
<rect x="10"  y="2" width="1" height="64" fill="black" />
<rect x="12"  y="2" width="1" height="64" fill="black" />
<rect x="14"  y="2" width="1" height="64" fill="black" />
<rect x="16"  y="2" width="2" height="64" fill="black" />
<rect x="19"  y="2" width="1" height="64" fill="black" />
<rect x="21"  y="2" width="2" height="64" fill="black" />
<rect x="24"  y="2" width="1" height="64" fill="black" />
<rect x="26"  y="2" width="1" height="64" fill="black" />
<rect x="28"  y="2" width="1" height="64" fill="black" />
<rect x="30"  y="2" width="1" height="64" fill="black" />
<rect x="32"  y="2" width="2" height="64" fill="black" />
<rect x="35"  y="2" width="2" height="64" fill="black" />
<rect x="38"  y="2" width="2" height="64" fill="black" />
<rect x="41"  y="2" width="1" height="64" fill="black" />
<rect x="43"  y="2" width="1" height="64" fill="black" />
<rect x="45"  y="2" width="2" height="64" fill="black" />
<rect x="48"  y="2" width="1" height="64" fill="black" />
<rect x="50"  y="2" width="2" height="64" fill="black" />
<rect x="53"  y="2" width="1" height="64" fill="black" />
<rect x="55"  y="2" width="1" height="64" fill="black" />
<rect x="57"  y="2" width="2" height="64" fill="black" />
<rect x="60"  y="2" width="1" height="64" fill="black" />
<rect x="62"  y="2" width="2" height="64" fill="black" />
<rect x="65"  y="2" width="1" height="64" fill="black" />
<rect x="67"  y="2" width="2" height="64" fill="black" />
<rect x="70"  y="2" width="1" height="64" fill="black" />
<rect x="72"  y="2" width="1" height="64" fill="black" />
<rect x="74"  y="2" width="2" height="64" fill="black" />
<rect x="77"  y="2" width="1" height="64" fill="black" />
<rect x="79"  y="2" width="1" height="64" fill="black" />
<rect x="81"  y="2" width="1" height="64" fill="black" />
<rect x="83"  y="2" width="2" height="64" fill="black" />
<rect x="86"  y="2" width="2" height="64" fill="black" />
<rect x="89"  y="2" width="1" height="64" fill="black" />
<rect x="91"  y="2" width="2" height="64" fill="black" />
<rect x="94"  y="2" width="1" height="64" fill="black" />
<rect x="96"  y="2" width="1" height="64" fill="black" />
<rect x="98"  y="2" width="1" height="64" fill="black" />
<rect x="100"  y="2" width="1" height="64" fill="black" />
<rect x="102"  y="2" width="2" height="64" fill="black" />
<rect x="105"  y="2" width="2" height="64" fill="black" />
<rect x="108"  y="2" width="1" height="64" fill="black" />
<rect x="110"  y="2" width="1" height="64" fill="black" />
<rect x="112"  y="2" width="1" height="64" fill="black" />
<rect x="114"  y="2" width="2" height="64" fill="black" />
<rect x="117"  y="2" width="2" height="64" fill="black" />
<rect x="120"  y="2" width="1" height="64" fill="black" />
<rect x="122"  y="2" width="1" height="64" fill="black" />
<rect x="124"  y="2" width="1" height="64" fill="black" />
<rect x="126"  y="2" width="2" height="64" fill="black" />
<rect x="129"  y="2" width="1" height="64" fill="black" />
<rect x="131"  y="2" width="2" height="64" fill="black" />
<rect x="134"  y="2" width="1" height="64" fill="black" />
<rect x="136"  y="2" width="1" height="64" fill="black" />
<rect x="138"  y="2" width="2" height="64" fill="black" />
<rect x="141"  y="2" width="2" height="64" fill="black" />
<rect x="144"  y="2" width="1" height="64" fill="black" />
<rect x="146"  y="2" width="1" height="64" fill="black" />
<rect x="148"  y="2" width="1" height="64" fill="black" />
<rect x="150"  y="2" width="2" height="64" fill="black" />
<rect x="153"  y="2" width="1" height="64" fill="black" />
<rect x="155"  y="2" width="2" height="64" fill="black" />
<rect x="158"  y="2" width="2" height="64" fill="black" />
<rect x="161"  y="2" width="1" height="64" fill="black" />
<rect x="163"  y="2" width="2" height="64" fill="black" />
<rect x="166"  y="2" width="1" height="64" fill="black" />
<rect x="168"  y="2" width="1" height="64" fill="black" />
<rect x="170"  y="2" width="2" height="64" fill="black" />
<rect x="173"  y="2" width="1" height="64" fill="black" />
<rect x="0"  y="64" width="185" height="14" fill="white" />
<text x="92" y="76" class="small" text-anchor="middle">978851500404</text>
Sorry, your browser does not support inline SVG.
</svg>