<?xml version="1.0" encoding="UTF-8" standalone="no" ?>
<!-- Created with Bars4J -->

<svg xmlns="http://www.w3.org/2000/svg" version="1.2" width="126" height="78"  preserveAspectRatio="x126Y78 meet">
	 <style>
	         text {
	             font-family: 'Courier New', monospace;
				 font-size: 14px;
	         }
	     </style>
<rect x="0" y="0" width="126" height="79" fill="white" />
<rect x="10"  y="2" width="1" height="64" fill="black" />
<rect x="12"  y="2" width="1" height="64" fill="black" />
<rect x="14"  y="2" width="1" height="64" fill="black" />
<rect x="17"  y="2" width="2" height="64" fill="black" />
<rect x="20"  y="2" width="1" height="64" fill="black" />
<rect x="22"  y="2" width="2" height="64" fill="black" />
<rect x="26"  y="2" width="1" height="64" fill="black" />
<rect x="28"  y="2" width="1" height="64" fill="black" />
<rect x="30"  y="2" width="1" height="64" fill="black" />
<rect x="33"  y="2" width="1" height="64" fill="black" />
<rect x="36"  y="2" width="2" height="64" fill="black" />
<rect x="39"  y="2" width="2" height="64" fill="black" />
<rect x="42"  y="2" width="2" height="64" fill="black" />
<rect x="45"  y="2" width="1" height="64" fill="black" />
<rect x="47"  y="2" width="2" height="64" fill="black" />
<rect x="51"  y="2" width="1" height="64" fill="black" />
<rect x="53"  y="2" width="1" height="64" fill="black" />
<rect x="56"  y="2" width="2" height="64" fill="black" />
<rect x="59"  y="2" width="2" height="64" fill="black" />
<rect x="63"  y="2" width="1" height="64" fill="black" />
<rect x="65"  y="2" width="1" height="64" fill="black" />
<rect x="67"  y="2" width="1" height="64" fill="black" />
<rect x="70"  y="2" width="2" height="64" fill="black" />
<rect x="73"  y="2" width="1" height="64" fill="black" />
<rect x="75"  y="2" width="1" height="64" fill="black" />
<rect x="78"  y="2" width="1" height="64" fill="black" />
<rect x="81"  y="2" width="2" height="64" fill="black" />
<rect x="84"  y="2" width="1" height="64" fill="black" />
<rect x="86"  y="2" width="2" height="64" fill="black" />
<rect x="90"  y="2" width="1" height="64" fill="black" />
<rect x="92"  y="2" width="2" height="64" fill="black" />
<rect x="95"  y="2" width="1" height="64" fill="black" />
<rect x="98"  y="2" width="2" height="64" fill="black" />
<rect x="102"  y="2" width="1" height="64" fill="black" />
<rect x="105"  y="2" width="1" height="64" fill="black" />
<rect x="107"  y="2" width="1" height="64" fill="black" />
<rect x="109"  y="2" width="2" height="64" fill="black" />
<rect x="112"  y="2" width="2" height="64" fill="black" />
<rect x="115"  y="2" width="1" height="64" fill="black" />
<rect x="0"  y="64" width="126" height="14" fill="white" />
<text x="63" y="76" class="small" text-anchor="middle">9876543210921</text>
Sorry, your browser does not support inline SVG.
</svg>