<?xml version="1.0" encoding="UTF-8" standalone="no" ?>
<!-- Created with Bars4J -->

<svg xmlns="http://www.w3.org/2000/svg" version="1.2" width="195" height="78"  preserveAspectRatio="x195Y78 meet">
	 <style>
	         text {
	             font-family: 'Courier New', monospace;
				 font-size: 14px;
	         }
	     </style>
<rect x="0" y="0" width="195" height="68" fill="white" />
<rect x="10"  y="2" width="2" height="64" fill="black" />
<rect x="13"  y="2" width="2" height="64" fill="black" />
<rect x="16"  y="2" width="1" height="64" fill="black" />
<rect x="19"  y="2" width="1" height="64" fill="black" />
<rect x="22"  y="2" width="2" height="64" fill="black" />
<rect x="25"  y="2" width="1" height="64" fill="black" />
<rect x="28"  y="2" width="2" height="64" fill="black" />
<rect x="31"  y="2" width="2" height="64" fill="black" />
<rect x="34"  y="2" width="2" height="64" fill="black" />
<rect x="37"  y="2" width="2" height="64" fill="black" />
<rect x="40"  y="2" width="1" height="64" fill="black" />
<rect x="43"  y="2" width="1" height="64" fill="black" />
<rect x="46"  y="2" width="1" height="64" fill="black" />
<rect x="49"  y="2" width="2" height="64" fill="black" />
<rect x="52"  y="2" width="1" height="64" fill="black" />
<rect x="55"  y="2" width="1" height="64" fill="black" />
<rect x="58"  y="2" width="1" height="64" fill="black" />
<rect x="61"  y="2" width="1" height="64" fill="black" />
<rect x="64"  y="2" width="2" height="64" fill="black" />
<rect x="67"  y="2" width="1" height="64" fill="black" />
<rect x="70"  y="2" width="2" height="64" fill="black" />
<rect x="73"  y="2" width="1" height="64" fill="black" />
<rect x="76"  y="2" width="1" height="64" fill="black" />
<rect x="79"  y="2" width="1" height="64" fill="black" />
<rect x="82"  y="2" width="2" height="64" fill="black" />
<rect x="85"  y="2" width="1" height="64" fill="black" />
<rect x="88"  y="2" width="2" height="64" fill="black" />
<rect x="91"  y="2" width="1" height="64" fill="black" />
<rect x="94"  y="2" width="2" height="64" fill="black" />
<rect x="97"  y="2" width="1" height="64" fill="black" />
<rect x="100"  y="2" width="1" height="64" fill="black" />
<rect x="103"  y="2" width="1" height="64" fill="black" />
<rect x="106"  y="2" width="1" height="64" fill="black" />
<rect x="109"  y="2" width="1" height="64" fill="black" />
<rect x="112"  y="2" width="1" height="64" fill="black" />
<rect x="115"  y="2" width="1" height="64" fill="black" />
<rect x="118"  y="2" width="1" height="64" fill="black" />
<rect x="121"  y="2" width="1" height="64" fill="black" />
<rect x="124"  y="2" width="2" height="64" fill="black" />
<rect x="127"  y="2" width="1" height="64" fill="black" />
<rect x="130"  y="2" width="1" height="64" fill="black" />
<rect x="133"  y="2" width="1" height="64" fill="black" />
<rect x="136"  y="2" width="1" height="64" fill="black" />
<rect x="139"  y="2" width="1" height="64" fill="black" />
<rect x="142"  y="2" width="1" height="64" fill="black" />
<rect x="145"  y="2" width="1" height="64" fill="black" />
<rect x="148"  y="2" width="2" height="64" fill="black" />
<rect x="151"  y="2" width="1" height="64" fill="black" />
<rect x="154"  y="2" width="1" height="64" fill="black" />
<rect x="157"  y="2" width="1" height="64" fill="black" />
<rect x="160"  y="2" width="1" height="64" fill="black" />
<rect x="163"  y="2" width="1" height="64" fill="black" />
<rect x="166"  y="2" width="2" height="64" fill="black" />
<rect x="169"  y="2" width="1" height="64" fill="black" />
<rect x="172"  y="2" width="2" height="64" fill="black" />
<rect x="175"  y="2" width="2" height="64" fill="black" />
<rect x="178"  y="2" width="1" height="64" fill="black" />
<rect x="181"  y="2" width="1" height="64" fill="black" />
<rect x="184"  y="2" width="1" height="64" fill="black" />
<rect x="0"  y="64" width="195" height="14" fill="white" />
<text x="97" y="76" class="small" text-anchor="middle">97885150040416</text>
Sorry, your browser does not support inline SVG.
</svg>