<svg xmlns="http://www.w3.org/2000/svg" version="1.2"><path fill="#fff" d="M0 0h107v12H0z"/><path d="M2 2h1v8H2zm2 0h1v8H4zm2 4h1v4H6zm2 0h1v4H8zm2-4h1v8h-1zm2 4h1v4h-1zm2-4h1v8h-1zm2 0h1v8h-1zm2 4h1v4h-1zm2 0h1v4h-1zm2 0h1v4h-1zm2 0h1v4h-1zm2-4h1v8h-1zm2 4h1v4h-1zm2-4h1v8h-1zm2 4h1v4h-1zm2 0h1v4h-1zm2 0h1v4h-1zm2-4h1v8h-1zm2 0h1v8h-1zm2 4h1v4h-1zm2 0h1v4h-1zm2-4h1v8h-1zm2 0h1v8h-1zm2 4h1v4h-1zm2 0h1v4h-1zm2 0h1v4h-1zm2-4h1v8h-1zm2 4h1v4h-1zm2-4h1v8h-1zm2 4h1v4h-1zm2-4h1v8h-1zm2 4h1v4h-1zm2-4h1v8h-1zm2 4h1v4h-1zm2 0h1v4h-1zm2 0h1v4h-1zm2-4h1v8h-1zm2 0h1v8h-1zm2 4h1v4h-1zm2 0h1v4h-1zm2 0h1v4h-1zm2 0h1v4h-1zm2 0h1v4h-1zm2-4h1v8h-1zm2 0h1v8h-1zm2 0h1v8h-1zm2 4h1v4h-1zm2 0h1v4h-1zm2 0h1v4h-1zm2-4h1v8h-1zm2 0h1v8h-1z"/>Sorry, your browser does not support inline SVG.</svg>
