<?xml version="1.0" encoding="UTF-8" standalone="no" ?>
<!-- Created with Bars4J -->
<svg xmlns="http://www.w3.org/2000/svg" version="1.2" width="107" height="12" preserveAspectRatio="x107Y12 meet"><style>text{font-family: 'Courier New', monospace;font-size: 14px;}</style><path fill="#fff" d="M0 0h107v23H0z"/><path d="m2 10h1v-8h-1zm2 0h1v-8h-1zm2 0h1v-4h-1zm2 0h1v-4h-1zm2 0h1v-8h-1zm2 0h1v-4h-1zm2 0h1v-8h-1zm2 0h1v-8h-1zm2 0h1v-4h-1zm2 0h1v-4h-1zm2 0h1v-4h-1zm2 0h1v-4h-1zm2 0h1v-8h-1zm2 0h1v-4h-1zm2 0h1v-8h-1zm2 0h1v-4h-1zm2 0h1v-4h-1zm2 0h1v-4h-1zm2 0h1v-8h-1zm2 0h1v-8h-1zm2 0h1v-4h-1zm2 0h1v-4h-1zm2 0h1v-8h-1zm2 0h1v-8h-1zm2 0h1v-4h-1zm2 0h1v-4h-1zm2 0h1v-4h-1zm2 0h1v-8h-1zm2 0h1v-4h-1zm2 0h1v-8h-1zm2 0h1v-4h-1zm2 0h1v-8h-1zm2 0h1v-4h-1zm2 0h1v-8h-1zm2 0h1v-4h-1zm2 0h1v-4h-1zm2 0h1v-4h-1zm2 0h1v-8h-1zm2 0h1v-8h-1zm2 0h1v-4h-1zm2 0h1v-4h-1zm2 0h1v-4h-1zm2 0h1v-4h-1zm2 0h1v-4h-1zm2 0h1v-8h-1zm2 0h1v-8h-1zm2 0h1v-8h-1zm2 0h1v-4h-1zm2 0h1v-4h-1zm2 0h1v-4h-1zm2 0h1v-8h-1zm2 0h1v-8h-1z"/>Sorry, your browser does not support inline SVG.</svg>