<?xml version="1.0" encoding="UTF-8" standalone="no" ?>
<!-- Created with Bars4J -->

<svg xmlns="http://www.w3.org/2000/svg" version="1.2" width="115" height="72"  preserveAspectRatio="x115Y72 meet">
	 <style>
	         text {
	             font-family: 'Courier New', monospace;
				 font-size: 14px;
	         }
	     </style>
<rect x="0" y="0" width="115" height="68" fill="white" />
<rect x="10"  y="2" width="1" height="64" fill="black" />
<rect x="12"  y="2" width="1" height="64" fill="black" />
<rect x="16"  y="2" width="2" height="64" fill="black" />
<rect x="19"  y="2" width="1" height="64" fill="black" />
<rect x="21"  y="2" width="3" height="64" fill="black" />
<rect x="25"  y="2" width="2" height="64" fill="black" />
<rect x="28"  y="2" width="2" height="64" fill="black" />
<rect x="33"  y="2" width="1" height="64" fill="black" />
<rect x="35"  y="2" width="1" height="64" fill="black" />
<rect x="37"  y="2" width="4" height="64" fill="black" />
<rect x="42"  y="2" width="3" height="64" fill="black" />
<rect x="46"  y="2" width="2" height="64" fill="black" />
<rect x="49"  y="2" width="2" height="64" fill="black" />
<rect x="52"  y="2" width="3" height="64" fill="black" />
<rect x="56"  y="2" width="1" height="64" fill="black" />
<rect x="58"  y="2" width="1" height="64" fill="black" />
<rect x="60"  y="2" width="2" height="64" fill="black" />
<rect x="64"  y="2" width="2" height="64" fill="black" />
<rect x="67"  y="2" width="1" height="64" fill="black" />
<rect x="69"  y="2" width="1" height="64" fill="black" />
<rect x="74"  y="2" width="1" height="64" fill="black" />
<rect x="76"  y="2" width="3" height="64" fill="black" />
<rect x="81"  y="2" width="2" height="64" fill="black" />
<rect x="85"  y="2" width="2" height="64" fill="black" />
<rect x="88"  y="2" width="1" height="64" fill="black" />
<rect x="91"  y="2" width="3" height="64" fill="black" />
<rect x="95"  y="2" width="1" height="64" fill="black" />
<rect x="97"  y="2" width="1" height="64" fill="black" />
<rect x="102"  y="2" width="1" height="64" fill="black" />
<rect x="104"  y="2" width="1" height="64" fill="black" />
<rect x="0"  y="64" width="115" height="8" fill="white" />
<rect x="20"  y="58" width="36" height="14" fill="white" />
<rect x="59"  y="58" width="36" height="14" fill="white" />
<text x="0" y="68" class="small" textLength="8">0</text>
<text x="20" y="68" class="small" textLength="36">75678</text>
<text x="59" y="68" class="small" textLength="36">16415</text>
<text x="106" y="68" class="small" textLength="8">6</text>Sorry, your browser does not support inline SVG.
</svg>