<svg xmlns="http://www.w3.org/2000/svg" version="1.2"><style>text{font-family:&quot;Courier New&quot;,monospace;font-size:14px}</style><path fill="#fff" d="M0 0h115v68H0z"/><path d="M10 2h1v64h-1zm2 0h1v64h-1zm4 0h2v64h-2zm3 0h1v64h-1zm2 0h3v64h-3zm4 0h2v64h-2zm3 0h2v64h-2zm5 0h1v64h-1zm2 0h1v64h-1zm2 0h4v64h-4zm5 0h3v64h-3zm4 0h2v64h-2zm3 0h2v64h-2zm3 0h3v64h-3zm4 0h1v64h-1zm2 0h1v64h-1zm2 0h2v64h-2zm4 0h2v64h-2zm3 0h1v64h-1zm2 0h1v64h-1zm5 0h1v64h-1zm2 0h3v64h-3zm5 0h2v64h-2zm4 0h2v64h-2zm3 0h1v64h-1zm3 0h3v64h-3zm4 0h1v64h-1zm2 0h1v64h-1zm5 0h1v64h-1zm2 0h1v64h-1z"/><path fill="#fff" d="M0 64h115v8H0z"/><path fill="#fff" d="M20 58h36v14H20zm39 0h36v14H59z"/><text y="68" class="small" textLength="8">0</text><text x="20" y="68" class="small" textLength="36">75678</text><text x="59" y="68" class="small" textLength="36">16415</text><text x="106" y="68" class="small" textLength="8">6</text>Sorry, your browser does not support inline SVG.</svg>
