<?xml version="1.0" encoding="UTF-8" standalone="no" ?>
<!-- Created with Bars4J -->
<svg xmlns="http://www.w3.org/2000/svg" version="1.2" width="71" height="72" preserveAspectRatio="x71Y72 meet"><style>text{font-family: 'Courier New', monospace;font-size: 14px;}</style><path fill="#fff" d="M0 0h71v68H0z"/><path d="M10 2h1v64h-1zm2 0h1v64h-1zm3 0h1v64h-1zm4 0h1v64h-1zm2 0h2v64h-2zm5 0h1v64h-1zm5 0h1v64h-1zm2 0h1v64h-1zm2 0h3v64h-3zm4 0h2v64h-2zm3 0h2v64h-2zm3 0h3v64h-3zm4 0h3v64h-3zm5 0h1v64h-1zm2 0h1v64h-1zm2 0h1v64h-1zm2 0h1v64h-1z"/><path fill="#fff" d="M0 64h71v8H0z"/><path fill="#fff" d="M13 58h43v14H13z"/><text x="0" y="68" class="small" textLength="8">0</text><text x="13" y="68" class="small" textLength="43">756785</text><text x="61" y="68" class="small" textLength="8">8</text>Sorry, your browser does not support inline SVG.</svg>