<?xml version="1.0" encoding="UTF-8" standalone="no" ?>
<!-- Created with Bars4J -->

<svg xmlns="http://www.w3.org/2000/svg" version="1.2" width="71" height="72"  preserveAspectRatio="x71Y72 meet">
	 <style>
	         text {
	             font-family: 'Courier New', monospace;
				 font-size: 14px;
	         }
	     </style>
<rect x="0" y="0" width="71" height="68" fill="white" />
<rect x="10"  y="2" width="1" height="64" fill="black" />
<rect x="12"  y="2" width="1" height="64" fill="black" />
<rect x="15"  y="2" width="1" height="64" fill="black" />
<rect x="19"  y="2" width="1" height="64" fill="black" />
<rect x="21"  y="2" width="2" height="64" fill="black" />
<rect x="26"  y="2" width="1" height="64" fill="black" />
<rect x="31"  y="2" width="1" height="64" fill="black" />
<rect x="33"  y="2" width="1" height="64" fill="black" />
<rect x="35"  y="2" width="3" height="64" fill="black" />
<rect x="39"  y="2" width="2" height="64" fill="black" />
<rect x="42"  y="2" width="2" height="64" fill="black" />
<rect x="45"  y="2" width="3" height="64" fill="black" />
<rect x="49"  y="2" width="3" height="64" fill="black" />
<rect x="54"  y="2" width="1" height="64" fill="black" />
<rect x="56"  y="2" width="1" height="64" fill="black" />
<rect x="58"  y="2" width="1" height="64" fill="black" />
<rect x="60"  y="2" width="1" height="64" fill="black" />
<rect x="0"  y="64" width="71" height="8" fill="white" />
<rect x="13"  y="58" width="43" height="14" fill="white" />
<text x="0" y="68" class="small" textLength="8">0</text>
<text x="13" y="68" class="small" textLength="43">756785</text>
<text x="61" y="68" class="small" textLength="8">8</text>Sorry, your browser does not support inline SVG.
</svg>